<svg xmlns="http://www.w3.org/2000/svg" viewBox="0 0 200 330" width="200" height="330">
  <!-- Simmer Down Logo - Flame Icon -->
  <!-- Orange: #EA5812, Red: #B02229 -->
  
  <!-- Orange flame parts -->
  <path fill="#EA5812" d="M22.92,180.57c.95-.34,1.77-.63,2.66-.95-.88-.55-1.87-.5-2.76-.82-1.35-.49-2.14-1.81-1.79-3.19.13-.51.07-.92-.17-1.37-.73-1.38-1.37-2.8-2.15-4.15-3.26-5.64-5.43-11.69-7.25-17.93-2.56-8.78-4.24-17.71-5.3-26.78-.27-2.31-.65-4.6-.71-6.93-.18-6.41,1.2-12.55,3.12-18.6,2.69-8.45,5.51-16.85,9.84-24.65,2.24-4.03,4.78-7.87,7.48-11.59,4.1-5.64,7.52-11.73,11.67-17.32,5.14-6.92,11.3-12.91,17.66-18.68,8.38-7.59,17.17-14.7,26.05-21.69,1.41-1.11,2.92-2.1,4.64-3.32-.92,2.65-1.75,5.04-2.58,7.42-1.2,3.43-2.41,6.85-3.6,10.28-.14.39-.59.85.09,1.22.7.38.82-.32,1.07-.63,5.09-6.4,10.11-12.88,16.02-18.56C107.22-9.49,121.76-17.23,138.46-20.88c1.6-.35,3.24-.52,4.86-.76.11-.02.22.01.35.03-.09.43-.48.53-.76.72-8.84,6.1-15.9,13.74-20.54,23.52-1.57,3.31-3.37,6.51-5.06,9.77-.94,2.78-2.05,5.51-2.86,8.34-1.86,10.57-.5,20.55,5.73,29.75-1.29.03-2.17-.24-3.02-.85-5.86-4.3-12.48-5.55-19.58-4.75-17.61,1.98-30.99,11.12-41.94,24.56-4.35,5.34-6.64,11.49-8.37,17.99-1.48,5.56-2.63,11.14-2.19,16.94.23,3.04.61,6.06,1.07,9.06.12.8.28,1.62.12,2.39-.3,1.43.18,2.64.7,3.92,2.11,5.13,3.96,10.37,6.91,15.12,7.54,12.13,18.13,20.06,31.88,24.06,13.41,3.9,26.68,8.28,40.03,12.4,3.88,1.2,7.18,3.33,10.08,6.08,3.79,3.58,7.27,7.47,10.64,11.46,2.55,3.02,3.77,6.52,3.66,10.52-.13,4.83-.42,9.63-2.54,14.06-3.17,6.61-7.98,11.47-15.42,12.87-6.48,1.22-12.52-.15-17.73-4.34-3.96-3.18-5.46-7.3-4.16-12.3.95-3.66,2.26-7.17,4.78-10.09,1.46-1.69,3.16-3.05,5.36-3.7.95-.28,1.89-.25,2.84.02,3.19.9,6.17,4.6,5.75,7.41-.23,1.52-.89,2.97-1.07,4.52-.04.36-.09.72-.16,1.07-.05.25-.09.4.27.49,2.36.65,5.41-.37,7.04-2.42,1.54-1.92,1.93-4.1.85-6.29-1.82-3.69-4.16-7.02-7.37-9.68-3.39-2.8-7.39-3.65-11.64-3.76-1.76-.04-3.53-.06-5.28.26-3.39.83-6.61,1.97-8.94,4.77-1.83,2.2-3.18,4.7-4.24,7.36-3.69,9.35-3.72,18.78-.63,28.27,1.35,4.16,3.18,8.09,5.74,11.66,5.04,7.05,12,10.95,20.44,12.42,5.69,1,11.38,1.04,17.07,0,.62-.11,1.21-.32,1.82-.48,3.82-1.15,7.54-2.56,11.31-3.85,4.08-1.85,8.18-3.67,10.79-8.02.17,1.49-.08,2.39-.72,3.3-5.08,7.15-9.86,14.5-15.36,21.35-5.82,7.26-12.89,13.15-20.28,18.7-4.26,3.2-8.56,6.35-12.87,9.47-6.44,4.68-13.7,7.68-21.2,10.17-6.82,2.27-13.68,4.39-20.6,6.32-.11.03-.23.02-.54.03,1.69-2.59,3.31-5.09,4.93-7.57,1.31-2.01,2.65-4,3.95-6.02,4.31-6.71,6.11-14.08,5.92-22.02-.2-8.42-1.96-16.32-7.05-23.26-2.08-2.84-3.92-5.85-5.9-8.76-1.24-1.82-2.61-3.56-3.75-5.44-1.54-2.55-3.98-4.22-5.92-6.37-4.61-5.1-10.38-8.89-15.51-13.41-1.18-1.04-2.27-2.14-3.17-3.44-.98-1.42-2.06-2.75-3.39-3.87-1.15-.97-1.82-2.32-2.51-3.64-1.2-2.3-2.51-4.48-5.22-5.32-.54-.17-.8-.76-1.13-1.22" transform="translate(-320,-240)"/>
  
  <path fill="#EA5812" d="M50.84,137.15c8.23,14.4,20.69,23.26,36.41,27.92,5.69,1.68,11.55,2.56,17.26,4.1,6.88,1.85,13.57,4.29,20.24,6.75,1.99.73,3.87,1.72,5.6,2.97,1.76,1.48,3.57,2.89,5.44,4.24,4.47,4.1,7.93,8.99,11.13,14.09,1.02,1.63.74,3.45.54,5.26-.45,4.16-1.2,8.23-3.43,11.87-.37.61-.84,1.16-1.26,1.74-1.58,1.69-3.31,3.2-5.42,4.22-4.55,1.6-9.11,1.46-13.65-.01-7.05-2.29-8.53-9.24-6.21-14.71,1.21-2.86,3.21-4.94,6.25-5.91,1.3-.41,2.47-.23,3.44.74.96.96,1,2.12.61,3.35-.46,1.44-1.05,2.82-1.06,4.4-.03,3.41,2.35,4.61,4.94,4.61,3.74,0,8.06-3.39,9.13-6.95.59-1.95.54-3.93-.14-5.79-2.61-7.21-7.3-12.6-14.51-15.42-5.14-2.01-10.24-1-15.18,1.07-8.66,3.63-13.6,10.39-15.95,19.23-2.45,9.19-2.12,18.3,1.1,27.28.11.3.18.61.26.92-.39.62.14,1.02.36,1.5.18.39.5.71.65,1.12,2.93,6.45,7.7,11.46,12.83,16.14,3.25,2.97,6.66,5.73,11.22,6.63,8.22,1.62,16.22,1.01,24.11-1.82,3.19-1.14,6.21-2.55,8.96-4.53.94-.68,1.91-1.33,2.99-1.77.33-.13.73-.54,1.07-.06.3.42-.18.64-.37.9-3.35,4.75-7.48,8.79-11.82,12.6-13.64,11.99-29.15,21.11-45.27,29.27-4.14,2.09-8.32,4.1-12.48,6.15-.79.39-1.58.74-2.56.77.19-.71.64-1.21.98-1.77,2.69-4.41,5.31-8.86,8.44-12.99,1.39-1.84,1.65-4.03,1.76-6.26.32-6.65.68-13.34-1.13-19.83-2.34-8.37-5.62-16.37-11.32-23.09-2.46-2.89-5.36-5.41-8.01-8.14-7.65-7.89-15.01-16.04-21.97-24.54-3.31-4.05-7.23-7.5-10.86-11.23-1.48-1.82-3.02-3.58-4.72-5.19-4.39-4.87-8.1-10.22-11.07-16.06-5.77-11.35-10.5-23.12-14.14-35.32-1.2-4.02-1.62-8.12-1.24-12.34.24-2.68-.5-5.32-.76-7.99.03-1.11-.03-2.23.35-3.3,3.41-10.53,6.81-21.07,10.25-31.6.82-2.51,1.88-4.91,3.48-7.07,2.15-2.91,3.59-6.24,5.17-9.47.12-.25.31-.55.26-.79-.32-1.56.81-2.41,1.61-3.41,10.43-12.98,21.06-25.78,32.72-37.68,4.61-4.7,9.37-9.24,14.31-13.58.29-.26.61-.5,1.04-.69-5.27,8.91-8.08,18.3-6.03,28.99.71-1.05,1.3-1.84,1.8-2.69,4.95-8.37,11.59-15.42,17.82-22.79,6.22-7.36,13.17-13.91,21.15-19.33,5.29-3.59,10.91-6.54,16.95-8.66.65.21,1.44.19,1.74,1.01-4.7,4.56-9.09,9.38-12.71,14.87-4.85,7.36-8.04,15.37-9.11,24.14-.68,5.55-.57,11.12.36,16.65.16.93.08,1.24-1.03,1.08-4.68-.7-9.36-1.25-14.12-1.05-8.53.36-16.23,3.02-23.09,8.1-4.12,3.06-8.13,6.25-12.1,9.51-1.06.87-2.09,1.78-2.87,2.9-4.46,6.46-9,12.87-12.46,19.95-2.88,5.88-4.18,12.13-4.6,18.63-.22,3.45-.16,6.89-.24,10.34-.1,4.17,1,8.17,1.52,12.25.34,2.67,1.66,4.89,2.59,7.28.93,2.76,2.22,5.35,3.59,7.9.09.17.2.35.4.42l.06-.03h0Z" transform="translate(-320,-240)"/>
  
  <!-- Red flame parts -->
  <path fill="#B02229" d="M177.29,225.44c.51-2.46,1.3-4.81,1.95-7.19,3.48-12.69,1.54-24.72-4.51-36.22-2.78-5.29-5.95-10.34-9.88-14.87-5.73-6.61-13.15-10.42-21.36-12.94-5.06-1.56-10.31-2.22-15.48-3.26-13.43-2.71-26.18-7.38-38.63-12.98-5.43-2.44-10.39-5.52-14.4-9.97-5.21-5.77-8.01-12.63-9.11-20.26-.56-3.85-1.06-7.7-.98-11.6.11-5.06,1.29-9.8,3.93-14.16,4.06-6.68,8.56-12.99,14.82-17.83,3.57-2.76,7.39-5.12,11.83-6.16,7.29-1.71,13.59.33,18.67,5.75,4.84,5.16,7.17,11.38,6.83,18.5-.1,2.15-.84,4.15-1.75,6.07-1.07,2.24-2.42,4.33-3.81,6.38-1,1.48-2.56,2.02-4.23,2.2-2.05.23-4.07-.06-6.01-.8-4.27-1.62-5.76-4.67-4.48-9.05.55-1.87,1.29-3.68,1.55-5.65.53-4.03-1.83-4.32-4.93-3.8-1.98.33-3.62,1.54-4.88,3.1-2.49,3.08-4.4,6.53-5.3,10.38-1.17,4.98.21,9.46,3.45,13.33,4.2,5.01,9.67,7.67,16.17,8.13,3.16.22,6.19-.62,9.14-1.68,3.21-1.16,6.17-2.79,9.01-4.7,5.66-3.8,8.73-9.27,10.55-15.67,2.3-8.06,2.42-16.09.17-24.17-.19-.68-.38-1.36-.39-2.27,1.77,1.43,3.39,2.78,5.05,4.08,6.1,4.76,12.04,9.71,17.8,14.86,6.89,6.16,12.2,13.67,17.79,20.96,9.19,11.98,14.21,25.61,16.62,40.36,1.58,9.71,1.62,19.47,1.24,29.26-.33,8.47-1.32,16.84-3.68,25-2.62,9.06-5.92,17.82-11.53,25.54-.31.42-.63.83-.96,1.24-.04.05-.14.06-.28.11v-.02h.01Z" transform="translate(-320,-240)"/>
  
  <path fill="#B02229" d="M20.23,195.1c1.01,1.75,1.93,3.25,2.75,4.8,5.49,10.3,13,18.93,21.94,26.34,3.65,3.02,7.11,6.23,10.35,9.7,1.01,1.08,2.01,2.19,3.14,3.16,9.22,7.89,14.23,18.3,17.79,29.6,2.24,7.13,2.06,14.23-.5,21.2-2.96,8.09-6.64,15.85-11.57,22.95-2.2,3.17-4.76,6.05-7.69,8.57-.3.26-.61.5-.99.81-1.27-3.91-2.57-7.7-3.73-11.54-.76-2.51-2.16-4.48-4.22-6.1-4.22-3.33-8.3-6.82-12.54-10.11-5.84-4.54-9.1-10.62-10.93-17.6-.81-3.08-1.2-6.24-1.24-9.7,1.57,1.28,3.03,2.33,4.33,3.55,5.35,4.97,11.8,7.68,18.77,9.38.77.19,1.52.48,2.29.68.31.08.68.33.94-.16.29-.55-.24-.61-.48-.77-3.16-2.13-6.19-4.43-9.21-6.74-5.35-4.08-9.5-9.28-13.57-14.55-1.13-1.46-1.88-3.15-2.42-4.93-1.74-5.68-3.96-11.22-5.31-17.03-.96-4.15-.95-8.34-.79-12.56.26-6.93.77-13.85,1.37-20.75.24-2.72.83-5.36,1.51-8.21h.01Z" transform="translate(-320,-240)"/>
  
  <path fill="#B02229" d="M180.08,118.59c.66,1.38,1.37,2.73,1.8,4.21.29.87.63,1.71.99,2.55l-.02-.03c2.24,5.7,3.93,11.56,5.16,17.54.85,4.14,1.51,8.31,1.96,12.52.11,1.02.12,2.06.35,3.07.47,2.25.32,4.54.35,6.81.08,6.06-.83,12.06-1.64,18.05-.84,6.3-1.78,12.59-2.79,18.87-.61,3.75-2.08,7.21-3.34,10.74-.11.31-.23.48-.6.38-.51-.14-.42-.52-.4-.86.16-2.32.15-4.66.52-6.95,1.31-8.12-.12-15.83-3.04-23.39-6.48-16.77-18.74-27.21-35.59-32.67-6.67-2.16-13.54-3.53-20.38-4.93-11.21-2.3-21.73-6.47-32.01-11.36-3.78-1.8-7.62-3.48-10.36-6.78-4.77-5.77-8.56-12.01-9.69-19.65-.7-4.73-1.55-9.42-1.12-14.21.7-7.79,3.17-14.86,9.54-19.87,2.98-2.34,5.65-5.12,9.03-6.95.8-.43,1.54-1,2.45-1.24,2.98-1.18,6.08-1.83,9.27-2.14,1-.1,1.98.28,2.97.02,7.58,1.26,11.91,6.81,12.96,13.98.37,2.55.7,5.08-.03,7.62-1.27,4.41-5.02,7.37-9.19,7.23-.2,0-.4-.01-.6-.04-2.79-.44-2.91-.66-1.89-3.24.63-1.59,1.38-3.14,1.64-4.87.55-3.62-1.46-7.28-5.03-9.01-3.17-1.53-6.84-.8-9.33,1.86-3.46,3.7-6.64,7.61-8.51,12.41-1.74,4.47-1.81,8.78.53,13.19,3.36,6.36,7.77,11.52,14.78,13.83,9.05,2.97,18.03,2.41,26.7-1.42,4.79-2.11,8.11-5.96,10.61-10.46,1.63-2.93,3.1-5.97,4.49-9.02,1.5-3.27,1.56-6.78,1.2-10.27-.47-4.49-1.13-8.97-1.72-13.51.82.44,1.38,1.16,2.01,1.77,6.19,6,12.57,11.81,18.46,18.11,3.05,3.26,5.23,7.2,8.15,10.55,2.81,3.22,4.77,7.02,7.4,10.35.22.28.46.55.69.83,1.44,1.95,1.97,4.36,3.27,6.38h0Z" transform="translate(-320,-240)"/>
  
  <path fill="#B02229" d="M30.5,279.52c2.33,1.1,4.7,2.11,6.88,3.5,2.71,1.36,5.44,2.68,8.49,3.1,1.57.22,3.13.56,4.73.48,1.6.08,3.2.17,4.8.23,1.05.04,2.06-.16,2.58-1.18.53-1.04.24-2.09-.48-2.91-1.55-1.78-3.17-3.51-4.79-5.23-3.27-3.48-6.63-6.86-10.25-9.98-2.53-2.17-4.68-4.73-6.92-7.19-.56-.61-1.14-1.14-2-1.21-.98-.08-1.28-.63-1.2-1.54.1-1.09.19-2.19-1.48-2.04-.47.04-.43-.44-.48-.71-.56-2.76-2.39-4.95-3.39-7.51-.31-.78-.96-1.39-1.7-1.82-.44-.25-.71-.45-.35-.99.45-.67.4-1.48-.1-2.03-1.56-1.75-1.66-3.94-2.01-6.05-1.51-9.24-2.27-18.53-1.96-27.89.05-1.59.19-3.18.3-4.82.52.07.53.51.66.79,1.44,3.04,2.77,6.13,4.29,9.12,2.75,5.4,6.46,10.02,11.47,13.53,2.25,1.58,3.96,3.74,5.92,5.62,7.23,6.94,13.27,14.89,19.32,22.83,4.07,5.35,6.13,11.45,7.13,17.99.5,3.28.96,6.58.99,9.91.05,5.71-1.21,11.11-3.78,16.21-2.06,4.08-4.65,7.85-7.03,11.75-.39.63-.95,1.16-1.55,1.86-.29-1.01-.5-1.84-.76-2.65-1.81-5.64-5.4-9.9-10.14-13.34-5.2-3.76-9.92-8.11-14.79-12.29-.71-1.17-1.71-2.11-2.44-3.26l.02.02c-.24-.76-1.07-1.53,0-2.29h.02Z" transform="translate(-320,-240)"/>
</svg>
