<?xml version="1.0" encoding="UTF-8"?>
<svg id="Capa_2" data-name="Capa 2" xmlns="http://www.w3.org/2000/svg" viewBox="0 0 745.42 355.6">
  <defs>
    <style>
      .cls-1 {
        fill: #29235c;
      }

      .cls-1, .cls-2, .cls-3, .cls-4 {
        stroke-width: 0px;
      }

      .cls-2 {
        fill: #9ba422;
      }

      .cls-3 {
        fill: #314f38;
      }

      .cls-4 {
        fill: #ea5812;
      }
    </style>
  </defs>
  <g id="Layer_4" data-name="Layer 4">
    <g>
      <g id="_0gbeXo" data-name="0gbeXo">
        <g>
          <path class="cls-2" d="m176.02,267.24c-18.06,36.79-45.33,63.35-85.38,76.07,1.74-3.2,3.26-6.27,5.02-9.21,4.24-7.08,6.73-14.66,6.52-22.95-.25-9.97-2.54-19.26-9.23-27.09-4.27-5-8.27-10.24-12.55-15.24-4.74-5.55-10.82-9.48-16.88-13.36-6.71-4.29-12.65-9.38-17.52-15.7-.49-.63-1.07-1.25-1.73-1.67-4.73-2.96-7.97-7.41-11.57-11.5-2.54-2.88-5.1-5.74-7.73-8.68.32-.38.69-.83,1.27-1.54-.9-.26-1.56-.53-2.24-.63-1.58-.25-2.29-1.23-2.67-2.7-.28-1.11-.66-2.28-1.3-3.21-6.78-9.82-11.25-20.69-14.69-32.03-.77-2.54-1.48-5.11-1.89-7.88,7.31,8.55,14.62,17.09,21.93,25.64.18-.08.36-.16.53-.24,0-.49.1-1.01-.02-1.47-4.21-16.24-12.04-30.39-24.33-41.93-1.21-1.13-1.7-2.3-1.55-3.92,1.21-12.94,4.09-25.46,9.3-37.39,1.49-3.41,3.21-6.71,4.87-10.04.46-.93,1.06-1.79,1.85-3.1,4.75,5.52,9.29,10.81,13.84,16.1.17-.08.34-.17.5-.25,0-.5.11-1.02-.02-1.48-2.05-7.44-4.48-14.74-8.47-21.4-.94-1.56-.77-2.73.05-4.24,5.75-10.69,13.15-20.15,21.44-28.95,1-1.07,2.01-2.13,2.79-2.95.29,3.98.6,8.03.88,12.08.05.74-.13,1.52.03,2.22.18.81.61,1.56.93,2.33.49-.61,1.24-1.15,1.44-1.85,2.1-7.53,4.06-15.11,6.21-22.63.38-1.35,1.18-2.76,2.19-3.73,6.15-5.96,12.39-11.83,18.65-17.67,1.25-1.17,2.75-2.08,4.5-2.91-2.02,7.48-4.05,14.96-6.07,22.44l.42.44c.71-.33,1.68-.46,2.09-1.01,4.43-5.87,8.53-11.93,9.92-19.34.34-1.82.55-3.69.55-5.54,0-1.46.56-2.33,1.8-2.94,6.8-3.32,13.49-6.89,20.42-9.9,5.5-2.39,11.3-4.09,16.97-6.09.22-.08.47-.08.98-.17-.26.41-.36.67-.54.83-10.53,8.98-16.63,20.69-20.73,33.61-1.14,3.6-2.49,7.21-3.01,10.92-1.2,8.67.48,16.91,4.92,24.52.82,1.41,1.75,2.76,2.63,4.14-.11.14-.23.28-.34.42-1.3-.63-2.58-1.31-3.91-1.88-6.67-2.89-13.51-2.76-20.41-1.02-16.8,4.23-29.01,14.55-38.44,28.72-6.07,9.12-7.78,19.27-7.94,29.92-.14,8.83,1.27,17.36,4.96,25.36,8.32,18.03,21.5,30.22,41.52,34.2,14.05,2.79,28.02,5.93,42.05,8.84,5.77,1.2,10.63,4.01,14.97,7.86,2.41,2.14,4.84,4.28,7.24,6.42,4.16,3.71,6.27,8.35,6.45,13.94.19,5.92-.46,11.65-3.45,16.92-7.02,12.4-22,13-30.68,6.99-3.93-2.72-5.33-6.46-4.89-11.13.43-4.44,1.75-8.49,4.57-11.99,3.49-4.34,7.95-4.51,11.52-.44,1.26,1.44,1.8,3.06,1.33,4.99-.23.96-.35,1.95-.46,2.94-.26,2.33-.14,2.46,2.14,2.4,5.33-.14,8.81-5.53,6.18-10.14-3.37-5.91-7.92-10.8-15-12.16-9.73-1.86-19.93,2.34-23.59,12.67-5.18,14.63-2.37,28.02,6.58,40.45,6.64,9.22,15.72,13.28,26.82,13.51,4.67.1,9.34-.05,13.81-1.51,2.02-.66,3.84-1.91,5.76-2.88,1.75-.88,3.43-2.19,5.28-2.53,4.76-.87,8.59-3.09,11.69-6.71.28-.32.59-.62.88-.94Z"/>
          <path class="cls-3" d="m76.05,330c-2.01-2.53-4.11-5.05-6.06-7.68-1.56-2.09-3.56-3.37-6.01-4.16-4.31-1.39-8.59-2.87-12.88-4.33-8.43-2.86-13.59-9.02-17.06-16.89-.11-.25-.09-.56-.17-1.13,8.03,3.63,16.11,4.79,24.68,2.66-15.94-3.46-29.2-10.69-36.98-25.18,2.28.97,4.82,2.53,7.55,3.08,2.78.56,5.76.12,8.76-.22-.38-.17-.75-.38-1.15-.49-5.07-1.41-10.17-2.73-15.21-4.25-.98-.3-2.16-1.17-2.52-2.08-1.36-3.39-2.52-6.86-3.57-10.36-1.78-5.95-3.43-11.93-5.11-17.9-.17-.61-.24-1.26-.46-2.46,2.41,1.99,4.33,3.61,6.29,5.19,6.39,5.18,13.73,8.65,21.26,11.76,6.36,2.63,12.7,5.31,19.07,7.93,1.53.63,2.09,1.59,2.03,3.28-.15,4.4-.11,8.82-.14,13.22,0,.59.06,1.19.38,1.87,3.22-3.81,3.73-8.79,5.81-13.4,1.31,1.13,2.68,2.08,3.77,3.29,3.35,3.74,6.7,7.5,9.85,11.41,2.72,3.38,4.05,7.44,4.28,11.73.62,11.79-.51,23.33-5.69,34.17-.13.27-.28.54-.43.8-.02.04-.11.05-.31.14Z"/>
        </g>
      </g>
      <g id="jSFQtx">
        <path class="cls-3" d="m137.9,11.44c-1.6,2.99-3.08,6.04-4.82,8.94-3.16,5.28-5.69,10.82-6.41,16.95-1.38,11.88.49,23.04,8.21,32.65,4.24,5.28,8.14,10.92,12.96,15.6,5.18,5.03,8.11,11.15,11.05,17.42,2.37,5.06,4.77,10.1,7.17,15.15.26.54.58,1.06,1.08,1.55.36-6.46-.13-12.85-1.23-19.21.14-.1.28-.19.41-.29,2.07,1.53,4.31,2.88,6.19,4.62,3,2.77,5.77,5.8,8.64,8.72,1.21,1.23,2.52,2.39,3.61,3.72.62.76,1.1,1.77,1.28,2.74,1.92,10.06,3.76,20.14,5.63,30.21.06.3.15.59.45.91,2.34-7.08,3.62-14.34,3.92-22.22,2.72,2.86,5.16,5.42,7.7,8.08-.39.42-.78.83-1.31,1.39.53.18.9.39,1.29.43,2.03.21,3.13,1.23,3.3,3.33.06.76.39,1.6.84,2.23,8.07,11.36,12.88,24.16,16.52,37.47,1.8,6.58,3.84,13.12,4.04,20.03.27,8.98-1.59,17.66-3.74,26.28-2.82,11.29-7.55,21.77-13.56,31.73-3.33,5.52-6.02,11.43-9.42,16.91-6.96,11.21-15.99,20.73-25.33,29.95-7.07,6.98-14.09,14.02-21.42,20.73-8.89,8.14-19.47,13.68-30.3,18.75-7.99,3.74-16.21,6.92-24.75,9.2-.34.09-.69.13-1.04.2-.18-.21-.36-.42-.55-.64.49-.24,1.06-.39,1.47-.73,7.83-6.63,13.75-14.7,17.44-24.25,2.52-6.53,5.19-13.15,6.46-19.97,1.72-9.3-.4-18.26-5.65-26.31-.74-1.13-1.47-2.27-2.51-3.85,1.15.29,1.9.32,2.48.65,9.02,5.25,18.3,4.38,27.7,1.25,14.62-4.86,25.27-14.57,33.71-27.15,6.43-9.58,8.1-20.32,7.93-31.44-.33-20.65-9.22-37.02-25.71-49.27-6.14-4.56-13.38-6.73-20.77-8.31-14.08-3.01-28.17-5.96-42.25-8.95-5.36-1.14-9.96-3.73-14.03-7.34-2.46-2.18-4.93-4.36-7.41-6.52-4.4-3.83-6.82-8.62-7.07-14.46-.4-9.15,1.63-17.39,8.96-23.63,7.3-6.22,20.56-5.91,27.5.68,2.37,2.26,3.6,4.97,3.48,8.3-.21,5.86-1.82,11.14-6.19,15.29-2.48,2.36-5.22,2.81-7.83,1.41-3.47-1.87-4.82-4.51-4.17-8.07.13-.73.25-1.47.32-2.21.22-2.3-.08-2.58-2.4-2.29-4.34.54-7.52,5.19-5.6,8.84,3.27,6.21,7.83,11.31,15.14,12.75,8.55,1.68,20.47-.95,24.18-15.35,4.26-16.55-.51-30.69-12.35-42.55-5.95-5.95-13.72-7.84-21.87-7.95-3.88-.05-7.79.46-11.66.97-2.99.39-5.64,1.7-8.05,3.62-1.32,1.05-2.98,2.01-4.61,2.25-5.38.81-9.45,3.55-12.72,7.72-.15.19-.33.37-.51.53-.09.07-.22.09-.33.14-.24-2.62,14.92-27.74,20.66-33.75,9.18-9.6,18.33-19.27,29.37-26.84,11.1-7.61,23.5-12.47,36.01-17.11.15.12.3.24.46.37Z"/>
      </g>
      <path class="cls-4" d="m649.79,92.05h-3.81c-20.91,0-41.83,0-62.74,0-3.44,0-4.02.78-3.14,4.18.99,3.87,4.33,6.31,8.79,6.32,17.5.02,35,0,52.49.01,3.99,0,7.97,0,12.17,0v12.33h0c-21.39,0-42.78.01-64.16,0-13.15,0-21.79-8.6-21.83-21.7-.02-5.5-.09-11,.04-16.5.26-10.66,9.04-19.67,19.68-19.75,21.75-.15,43.49-.01,65.24.02.32,0,.65.08,1.08.14v12.18c-1.13,0-2.11,0-3.09,0-20.5,0-41,0-61.49,0-5.16,0-8.85,3.31-9.13,7.9-.08,1.37.99,2.49,2.37,2.48,9.42-.08,18.83-.04,28.25-.04,12.25,0,24.5.04,36.75-.03,1.9-.01,2.7.42,2.59,2.49-.17,3.22-.04,6.45-.04,9.96Z"/>
      <path class="cls-4" d="m508.41,102.3c4.94-5.7,9.61-11.11,14.29-16.52,7.85-9.07,15.68-18.15,23.54-27.21,3.24-3.73,7.32-4.48,11.12-2.14,2.37,1.46,3.87,3.59,3.88,6.33.08,17.23.04,34.46.04,51.91h-12.21v-39.65c-.28-.11-.29-.12-.57-.23-.58.61-1.19,1.19-1.74,1.83-10.48,12.08-20.92,24.19-31.43,36.24-4.6,5.27-9.52,5.22-14.14-.1-10.38-11.94-20.71-23.93-31.06-35.9-.62-.72-1.27-1.41-2.49-1.9v39.73h-12.02c-.05-.8-.16-1.67-.16-2.55,0-15.91-.01-31.82,0-47.73,0-4.61,1.67-7.29,5.3-8.68,3.64-1.4,6.7-.54,9.74,2.95,12.02,13.83,24,27.7,35.99,41.54.54.62,1.11,1.21,1.9,2.07Z"/>
      <path class="cls-4" d="m396.12,102.46c6.03-6.94,11.65-13.4,17.26-19.88,6.98-8.06,13.94-16.14,20.92-24.21,2.17-2.51,4.83-3.8,8.2-3.02,4.36,1.01,6.6,3.92,6.61,8.71.03,16.08.01,32.17,0,48.25,0,.74-.08,1.47-.14,2.4h-11.91v-39.68c-.28-.12-.3-.13-.59-.25-.5.49-1.06.93-1.51,1.46-10.25,11.84-20.49,23.69-30.74,35.54-.47.55-.95,1.1-1.44,1.63-3.71,3.96-9.79,3.75-13.36-.33-10.64-12.16-21.19-24.4-31.77-36.61-.52-.6-1.07-1.17-2.08-2.26v40.47h-12.23c-.04-.88-.11-1.7-.11-2.51,0-15.83.01-31.67-.02-47.5,0-3.37.88-6.24,3.88-8.15,3.79-2.41,7.85-1.8,11.15,1.97,6.81,7.77,13.52,15.62,20.28,23.44,5.34,6.18,10.69,12.35,16.02,18.53.48.56.91,1.16,1.58,2.01Z"/>
      <path class="cls-4" d="m716.58,99.2c8.58,5.09,17.16,10.18,25.74,15.27-.06.22-.05.19-.11.41-7.47,0-14.95.04-22.42-.05-.91-.01-1.87-.62-2.71-1.12-10.9-6.43-21.76-12.92-32.67-19.34-2.06-1.21-3.91-2.52-3.17-5.26.73-2.73,2.99-2.99,5.38-2.98,12.16.02,24.33.03,36.49,0,5-.02,8.73-3.34,8.96-7.84.26-5.12-3.45-8.97-8.81-8.99-13.75-.03-27.49-.01-41.24-.01-3,0-6,.11-9-.04-2.01-.1-2.56.62-2.55,2.57.07,13.25.04,26.49.04,39.74v3.14h-12.06v-57.62c.77-.05,1.43-.13,2.08-.13,20.99-.03,41.99-.07,62.98-.08,8.24,0,14.49,3.63,18.34,10.84,3.99,7.46,3.55,14.98-1.25,21.98-3.81,5.56-9.29,8.46-16.06,8.72-2.58.1-5.18.02-7.77.02-.11.4-.1.36-.2.75Z"/>
      <path class="cls-4" d="m319.26,57.06v11.9h-45.75c.75,1.11,1.1,1.71,1.52,2.24,6.44,8.07,12.94,16.09,19.33,24.2,5.73,7.27,2.13,17.75-6.88,19.35-.53.09-1.06.12-1.6.12-15.66.02-31.33.02-46.99.02-.41,0-.82-.07-1.45-.12v-11.98h47.04c-.78-1.12-1.14-1.71-1.57-2.24-6.51-8.12-13.11-16.17-19.52-24.37-5.42-6.94-2.2-16.83,6.14-18.96.96-.24,1.95-.32,2.94-.32,14.83-.03,29.66-.02,44.49-.01.73,0,1.45.11,2.29.18Z"/>
      <rect class="cls-4" x="324.21" y="57.1" width="11.7" height="57.72"/>
      <g>
        <path class="cls-1" d="m249.78,289.04h11.19v5.59h-11.19c-7.46,0-11.19-3.73-11.19-11.19v-14.91h5.59v14.91c0,3.73,1.86,5.59,5.59,5.59Z"/>
        <path class="cls-1" d="m263.76,279.72c0-7.46,3.73-11.19,11.19-11.19s11.19,3.73,11.19,11.19v14.91h-5.59v-5.59h-11.19v5.59h-5.59v-14.91Zm11.19-5.59c-3.73,0-5.59,1.86-5.59,5.59v3.73h11.19v-3.73c0-3.73-1.86-5.59-5.59-5.59Z"/>
        <path class="cls-1" d="m303.99,277.86v16.78h-5.59v-16.78c0-6.21,3.11-9.32,9.32-9.32,2.81,0,4.98.63,6.53,1.9,1.54-1.27,3.72-1.9,6.52-1.9,6.21,0,9.32,3.11,9.32,9.32v16.78h-5.59v-16.78c0-2.49-1.24-3.73-3.73-3.73s-3.73,1.24-3.73,3.73v16.78h-5.59v-16.78c0-2.49-1.24-3.73-3.73-3.73s-3.73,1.24-3.73,3.73Z"/>
        <path class="cls-1" d="m332.89,279.72c0-7.46,3.73-11.19,11.19-11.19s11.19,3.73,11.19,11.19v14.91h-5.59v-5.59h-11.19v5.59h-5.59v-14.91Zm11.19-5.59c-3.73,0-5.59,1.86-5.59,5.59v3.73h11.19v-3.73c0-3.73-1.86-5.59-5.59-5.59Z"/>
        <path class="cls-1" d="m369.24,294.64c-7.46,0-11.19-3.73-11.19-11.19h5.59c0,3.73,1.86,5.59,5.59,5.59s5.59-1.86,5.59-5.59v-14.91h5.59v14.91c0,7.46-3.73,11.19-11.19,11.19Z"/>
        <path class="cls-1" d="m383.23,279.72c0-7.46,3.73-11.19,11.19-11.19s11.19,3.73,11.19,11.19v14.91h-5.59v-5.59h-11.19v5.59h-5.59v-14.91Zm11.19-5.59c-3.73,0-5.59,1.86-5.59,5.59v3.73h11.19v-3.73c0-3.73-1.86-5.59-5.59-5.59Z"/>
        <path class="cls-1" d="m421.45,268.54c7.46,0,11.19,3.73,11.19,11.19v3.73c0,7.46-3.73,11.19-11.19,11.19h-13.05v-26.1h13.05Zm5.59,11.19c0-3.73-1.86-5.59-5.59-5.59h-7.46v14.91h7.46c3.73,0,5.59-1.86,5.59-5.59v-3.73Z"/>
        <path class="cls-1" d="m435.43,279.72c0-7.46,3.73-11.19,11.19-11.19s11.19,3.73,11.19,11.19v14.91h-5.59v-5.59h-11.19v5.59h-5.59v-14.91Zm11.19-5.59c-3.73,0-5.59,1.86-5.59,5.59v3.73h11.19v-3.73c0-3.73-1.86-5.59-5.59-5.59Z"/>
      </g>
      <g>
        <path class="cls-3" d="m254.05,127.6h49.3l1.1,1.1v17.16c0,1.95-1.22,2.92-3.65,2.92h-32.14c-3.17,0-5.11,1.58-5.84,4.75v57.7c1.22,2.05,2.43,3.39,3.65,4.02h12.78c1.46,0,2.19-.73,2.19-2.19v-35.79c0-.44.73-1.05,2.19-1.83l.37.37h21.18c1.95,0,2.92.97,2.92,2.92v55.15c0,1.85-.49,2.95-1.46,3.29h-48.21c-8.86-2.14-14.95-5.92-18.26-11.32-2.68-4.87-4.02-8.76-4.02-11.69v-64.64c0-4.77,2.68-10.25,8.03-16.43,4.63-3.26,7.91-5.09,9.86-5.48Z"/>
        <path class="cls-3" d="m342.44,127.6h38.35c2.29,0,3.75,4.02,4.38,12.05l18.99,96.05c-.24.97-.97,1.46-2.19,1.46h-22.64c-1.95,0-3.17-2.92-3.65-8.77-1.61-10.52-2.82-16.24-3.65-17.16h-20.82c-.93,0-2.51,8.16-4.75,24.47l-1.46,1.46h-24.83l-1.1-1.1c7.06-35.69,12.3-63.94,15.7-84.73l4.75-22.28c1.02-.97,2-1.46,2.92-1.46Zm9.5,63.18l.37.37h13.88l.73-.73-6.94-38.71-.37-.37h-.37c-1.12,0-2.24,4.26-3.36,12.78-2.63,14.66-3.94,23.54-3.94,26.66Z"/>
        <path class="cls-3" d="m416.21,127.6h49.67c6.33,1.51,11.44,4.67,15.34,9.5,2.92,3.26,4.38,9.35,4.38,18.26v8.4c0,8.33-1.46,13.8-4.38,16.43l-1.46,1.83v.73c4.14,3.9,6.21,9.25,6.21,16.07v36.16c-.63,1.46-1.61,2.19-2.92,2.19h-20.45c-1.95,0-2.92-1.1-2.92-3.29v-35.43c-.73-4.14-2.8-6.21-6.21-6.21h-10.23l-1.46,1.46v39.44c0,2.68-.97,4.02-2.92,4.02h-20.6c-1.41,0-2.39-1.1-2.92-3.29l-.22-105.18,1.1-1.1Zm25.56,22.28v21.55l1.1,1.1h11.32c2.87,0,4.7-2.19,5.48-6.57v-11.69c-.88-3.89-3.31-5.84-7.3-5.84h-9.13l-1.46,1.46Z"/>
        <path class="cls-3" d="m548.78,127.6c7.55,1.22,12.98,3.6,16.29,7.16,2.34,3.65,3.48,8.08,3.43,13.29l.37,65.37c-.34,5.31-2.65,10.54-6.94,15.7-5.31,5.11-10.91,7.79-16.8,8.03h-46.02c-.73,0-1.46-.97-2.19-2.92v-102.62c0-2.68.85-4.02,2.56-4.02h49.3Zm-25.93,20.09v67.93c0,.73.49,1.1,1.46,1.1h11.32c4.67,0,7.11-1.7,7.3-5.11v-58.8c-.05-3.7-3.09-5.41-9.13-5.11h-10.96Z"/>
        <path class="cls-3" d="m581.28,127.6h63.18l1.1,1.1v16.43c0,1.7-.85,2.56-2.56,2.56h-36.16c-1.46,0-2.19.73-2.19,2.19v18.99l1.1,1.1h30.68c2.19,0,3.29.85,3.29,2.56v15.7c0,1.46-.73,2.19-2.19,2.19h-30.68c-1.46,0-2.19.73-2.19,2.19v18.26c0,4.14,3.16,6.21,9.5,6.21h30.68c1.7,0,2.56.85,2.56,2.56v16.43l-1.1,1.1h-47.11c-6.96-1.85-12.2-5.5-15.7-10.96-2.44-4.92-3.65-9.67-3.65-14.24v-79.98c0-2.92.49-4.38,1.46-4.38Z"/>
        <path class="cls-3" d="m659.44,127.6h35.06c1.36,1.07,4.65,9.84,9.86,26.3l12.05,35.79h1.1l-.07-59.24c.44-1.9.95-2.85,1.53-2.85h24.83l1.1,1.1v107.37l-1.1,1.1h-33.96c-1.56,0-2.65-1.7-3.29-5.11l-19.36-57.34h-1.1v59.53c0,1.95-.73,2.92-2.19,2.92h-24.47l-1.1-1.1v-107.37l1.1-1.1Z"/>
      </g>
      <rect class="cls-1" x="466.78" y="281.12" width="278.64" height="13.11"/>
    </g>
  </g>
</svg>